<svg width="100" height="32" viewBox="0 0 183 62" fill="none" xmlns="http://www.w3.org/2000/svg">
<rect x="1" y="1" width="181" height="60" rx="30" fill="black" stroke="#B5B5B5" stroke-width="2"/>
<path d="M30.292 39.728C29.8067 39.728 29.4253 39.5633 29.148 39.234C28.1427 37.1887 27.198 34.58 26.314 31.408C25.43 28.2187 24.8753 25.2373 24.65 22.464L26.912 21.398L27.588 21.814C27.5187 22.594 27.484 23.4693 27.484 24.44C27.484 28.496 28.3247 33.0027 30.006 37.96C30.3873 35.62 31.1153 32.8293 32.19 29.588C33.2647 26.3467 34.348 23.7813 35.44 21.892C35.804 21.5627 36.2287 21.398 36.714 21.398C36.7833 21.398 36.818 21.4413 36.818 21.528C36.818 21.6147 36.714 21.918 36.506 22.438C36.298 22.958 36.0207 23.6947 35.674 24.648C35.3273 25.6013 34.9547 26.6933 34.556 27.924C33.6373 30.8533 32.9007 34.372 32.346 38.48L30.292 39.728ZM40.966 27.404C41.0007 27.924 41.018 28.4613 41.018 29.016C41.018 32.032 40.4893 35.3513 39.432 38.974C39.1893 39.2167 38.86 39.338 38.444 39.338C38.3573 39.338 38.2967 39.3293 38.262 39.312C38.2447 39.2947 38.2447 39.2687 38.262 39.234C38.678 36.7553 38.886 34.476 38.886 32.396C38.886 30.316 38.6693 28.444 38.236 26.78L38.86 26.39L40.966 27.404ZM39.9 24.83C39.4667 24.83 39.1287 24.6827 38.886 24.388C38.6607 24.0933 38.548 23.7207 38.548 23.27C38.548 22.8193 38.7473 22.4293 39.146 22.1C39.5447 21.7533 40.1253 21.528 40.888 21.424C41.408 21.8573 41.668 22.3773 41.668 22.984C41.668 23.5733 41.486 24.0327 41.122 24.362C40.758 24.674 40.3507 24.83 39.9 24.83ZM52.3396 29.432C52.1489 30.2293 51.7676 30.9487 51.1956 31.59C50.6236 32.2313 49.9736 32.7427 49.2456 33.124C47.9109 33.8173 46.7409 34.2593 45.7356 34.45C45.8049 35.3167 46.0303 35.958 46.4116 36.374C46.7929 36.79 47.2523 36.998 47.7896 36.998C49.3149 36.998 50.6929 35.7153 51.9236 33.15C51.9409 33.046 52.0276 32.994 52.1836 32.994C52.3396 32.994 52.5736 33.1153 52.8856 33.358C52.1403 35.1607 51.2216 36.6513 50.1296 37.83C49.0549 38.9913 47.9803 39.572 46.9056 39.572C45.8309 39.572 44.9903 39.182 44.3836 38.402C43.7943 37.622 43.4996 36.5733 43.4996 35.256C43.4996 33.436 43.9936 31.7547 44.9816 30.212C45.5189 29.38 46.2729 28.652 47.2436 28.028C48.2316 27.3867 49.4016 26.91 50.7536 26.598C51.8109 26.962 52.3396 27.9067 52.3396 29.432ZM49.2976 28.652C48.5696 28.652 47.8156 29.0767 47.0356 29.926C46.2556 30.758 45.8223 31.9193 45.7356 33.41C47.1743 33.0287 48.2749 32.474 49.0376 31.746C49.8176 31.0007 50.2076 30.2727 50.2076 29.562C50.2076 29.302 50.1296 29.0853 49.9736 28.912C49.8176 28.7387 49.5923 28.652 49.2976 28.652ZM55.6619 39.286C56.0432 37.0847 56.2339 34.9353 56.2339 32.838C56.2339 30.7407 56.0519 28.7387 55.6879 26.832L56.3379 26.39L58.4179 27.508C58.4352 27.8547 58.4439 28.3487 58.4439 28.99C58.4439 31.7113 58.0106 34.9873 57.1439 38.818C56.1906 43.0127 54.2752 45.5347 51.3979 46.384L50.7479 45.916L51.3459 43.394C51.6752 43.446 51.9786 43.472 52.2559 43.472C53.1226 43.472 53.8419 43.0993 54.4139 42.354C55.0032 41.6087 55.4192 40.586 55.6619 39.286ZM57.2999 24.31C56.8666 24.31 56.5286 24.1627 56.2859 23.868C56.0432 23.556 55.9219 23.1833 55.9219 22.75C55.9392 22.2993 56.1472 21.9093 56.5459 21.58C56.9446 21.2333 57.5252 21.008 58.2879 20.904C58.8079 21.3373 59.0679 21.8573 59.0679 22.464C59.0679 23.0533 58.8859 23.5127 58.5219 23.842C58.1579 24.154 57.7506 24.31 57.2999 24.31ZM70.4415 27.118L69.1935 28.548C70.1642 29.7267 70.6495 31.2087 70.6495 32.994C70.6495 35.5073 69.8435 37.44 68.2315 38.792C67.3822 39.5027 66.3335 39.858 65.0855 39.858C63.8548 39.858 62.7975 39.364 61.9135 38.376C61.0468 37.388 60.6135 36.0273 60.6135 34.294C60.6135 32.474 61.2895 30.8187 62.6415 29.328C63.3522 28.548 64.3488 27.898 65.6315 27.378C66.9315 26.858 68.4395 26.5287 70.1555 26.39L70.4415 27.118ZM65.4755 37.492C66.5328 37.492 67.4082 37.0413 68.1015 36.14C68.8122 35.2387 69.1675 34.3027 69.1675 33.332C69.1675 31.2347 68.6908 29.614 67.7375 28.47C66.4028 28.6953 65.2762 29.2933 64.3575 30.264C63.4388 31.2347 62.9795 32.3353 62.9795 33.566C62.9795 34.7967 63.1962 35.7587 63.6295 36.452C64.0802 37.1453 64.6955 37.492 65.4755 37.492ZM80.8821 26.728L80.0501 29.042C79.2528 28.522 78.4641 28.262 77.6841 28.262C76.4014 28.262 75.7601 28.756 75.7601 29.744C75.7601 30.42 76.2974 31.2087 77.3721 32.11C77.8401 32.4913 78.2994 32.89 78.7501 33.306C79.8248 34.294 80.3621 35.2907 80.3621 36.296C80.3621 37.076 80.0674 37.8213 79.4781 38.532C79.1488 38.9133 78.6114 39.2167 77.8661 39.442C77.1381 39.6847 76.2974 39.806 75.3441 39.806C74.3908 39.806 73.5328 39.6847 72.7701 39.442C72.6834 39.3727 72.5794 39.2167 72.4581 38.974C72.3541 38.714 72.3021 38.532 72.3021 38.428C72.3021 38.324 72.3194 38.272 72.3541 38.272C72.4061 38.272 72.5361 38.298 72.7441 38.35C73.2641 38.4887 73.9228 38.558 74.7201 38.558C75.5174 38.558 76.1848 38.3847 76.7221 38.038C77.2768 37.6913 77.5541 37.2493 77.5541 36.712C77.5541 36.1747 77.3288 35.646 76.8781 35.126C76.4448 34.606 75.9594 34.138 75.4221 33.722C74.9021 33.306 74.4168 32.7947 73.9661 32.188C73.5328 31.564 73.3161 30.94 73.3161 30.316C73.3161 29.7613 73.4981 29.2673 73.8621 28.834C74.2434 28.3833 74.6768 28.0107 75.1621 27.716C76.3408 27.0227 78.0568 26.5287 80.3101 26.234L80.8821 26.728ZM99.8735 26.676L99.8475 26.832C98.8768 28.5827 98.0015 30.5327 97.2215 32.682C96.4588 34.814 95.9562 36.8593 95.7135 38.818L93.4775 39.728C93.0442 39.728 92.7148 39.6067 92.4895 39.364C91.8828 37.9427 91.3368 36.218 90.8515 34.19C90.3835 32.1447 90.1495 30.2813 90.1495 28.6C90.1495 27.872 90.1928 27.2827 90.2795 26.832L90.9295 26.39L93.0095 27.43C92.6975 28.73 92.5415 30.2033 92.5415 31.85C92.5415 33.4793 92.7668 35.4987 93.2175 37.908C93.7202 36.14 94.5002 34.216 95.5575 32.136C96.6148 30.0387 97.6548 28.3053 98.6775 26.936C99.0068 26.6933 99.3795 26.572 99.7955 26.572C99.8475 26.572 99.8735 26.6067 99.8735 26.676ZM107.576 27.092L109.682 26.182L110.306 26.546C109.734 28.2273 109.448 30.1687 109.448 32.37C109.448 33.306 109.526 34.606 109.682 36.27C109.838 37.934 109.985 39.0607 110.124 39.65C110.124 39.702 109.994 39.728 109.734 39.728C109.474 39.728 109.223 39.6067 108.98 39.364C108.425 38.0813 107.983 36.192 107.654 33.696C106.926 35.4293 106.051 36.842 105.028 37.934C104.023 39.026 103.113 39.572 102.298 39.572C100.738 39.572 99.958 38.5927 99.958 36.634C99.958 35.5073 100.183 34.424 100.634 33.384C101.085 32.344 101.691 31.434 102.454 30.654C103.979 29.1113 105.687 27.924 107.576 27.092ZM103.702 36.452C104.257 36.452 104.872 36.01 105.548 35.126C106.241 34.2247 106.857 32.9593 107.394 31.33C107.377 31.0873 107.368 30.6193 107.368 29.926C107.368 29.2327 107.377 28.7213 107.394 28.392C105.903 29.2413 104.699 30.1513 103.78 31.122C102.861 32.0753 102.402 33.202 102.402 34.502C102.402 35.802 102.835 36.452 103.702 36.452ZM113.965 20.488L116.045 21.476C116.236 22.7587 116.331 24.154 116.331 25.662C116.331 27.1527 116.244 28.7473 116.071 30.446C115.707 33.878 115.187 36.8507 114.511 39.364C114.407 39.4853 114.225 39.5893 113.965 39.676C113.705 39.7627 113.497 39.806 113.341 39.806C113.185 39.806 113.107 39.7627 113.107 39.676C113.922 36.2093 114.329 32.786 114.329 29.406C114.329 26.026 113.991 23.192 113.315 20.904L113.965 20.488ZM128.764 27.118L127.516 28.548C128.486 29.7267 128.972 31.2087 128.972 32.994C128.972 35.5073 128.166 37.44 126.554 38.792C125.704 39.5027 124.656 39.858 123.408 39.858C122.177 39.858 121.12 39.364 120.236 38.376C119.369 37.388 118.936 36.0273 118.936 34.294C118.936 32.474 119.612 30.8187 120.964 29.328C121.674 28.548 122.671 27.898 123.954 27.378C125.254 26.858 126.762 26.5287 128.478 26.39L128.764 27.118ZM123.798 37.492C124.855 37.492 125.73 37.0413 126.424 36.14C127.134 35.2387 127.49 34.3027 127.49 33.332C127.49 31.2347 127.013 29.614 126.06 28.47C124.725 28.6953 123.598 29.2933 122.68 30.264C121.761 31.2347 121.302 32.3353 121.302 33.566C121.302 34.7967 121.518 35.7587 121.952 36.452C122.402 37.1453 123.018 37.492 123.798 37.492ZM139.412 26.936L138.788 29.926C138.563 29.8567 138.26 29.822 137.878 29.822C137.497 29.822 137.133 29.9433 136.786 30.186C136.44 30.4287 136.119 30.8447 135.824 31.434C135.53 32.0233 135.278 32.6387 135.07 33.28C134.862 33.9213 134.654 34.606 134.446 35.334C134.238 36.062 134.065 36.6687 133.926 37.154C133.805 37.622 133.554 38.3673 133.172 39.39C132.947 39.65 132.626 39.78 132.21 39.78C132.072 39.78 132.002 39.7453 132.002 39.676C132.453 37.4747 132.678 35.2907 132.678 33.124C132.678 30.94 132.41 28.8427 131.872 26.832L132.496 26.39L134.602 27.508C134.724 28.756 134.784 29.8567 134.784 30.81V31.174C135.859 28.6607 137.22 27.0833 138.866 26.442L139.412 26.936ZM148.697 29.432C148.506 30.2293 148.125 30.9487 147.553 31.59C146.981 32.2313 146.331 32.7427 145.603 33.124C144.268 33.8173 143.098 34.2593 142.093 34.45C142.162 35.3167 142.388 35.958 142.769 36.374C143.15 36.79 143.61 36.998 144.147 36.998C145.672 36.998 147.05 35.7153 148.281 33.15C148.298 33.046 148.385 32.994 148.541 32.994C148.697 32.994 148.931 33.1153 149.243 33.358C148.498 35.1607 147.579 36.6513 146.487 37.83C145.412 38.9913 144.338 39.572 143.263 39.572C142.188 39.572 141.348 39.182 140.741 38.402C140.152 37.622 139.857 36.5733 139.857 35.256C139.857 33.436 140.351 31.7547 141.339 30.212C141.876 29.38 142.63 28.652 143.601 28.028C144.589 27.3867 145.759 26.91 147.111 26.598C148.168 26.962 148.697 27.9067 148.697 29.432ZM145.655 28.652C144.927 28.652 144.173 29.0767 143.393 29.926C142.613 30.758 142.18 31.9193 142.093 33.41C143.532 33.0287 144.632 32.474 145.395 31.746C146.175 31.0007 146.565 30.2727 146.565 29.562C146.565 29.302 146.487 29.0853 146.331 28.912C146.175 28.7387 145.95 28.652 145.655 28.652ZM158.831 26.728L157.999 29.042C157.202 28.522 156.413 28.262 155.633 28.262C154.351 28.262 153.709 28.756 153.709 29.744C153.709 30.42 154.247 31.2087 155.321 32.11C155.789 32.4913 156.249 32.89 156.699 33.306C157.774 34.294 158.311 35.2907 158.311 36.296C158.311 37.076 158.017 37.8213 157.427 38.532C157.098 38.9133 156.561 39.2167 155.815 39.442C155.087 39.6847 154.247 39.806 153.293 39.806C152.34 39.806 151.482 39.6847 150.719 39.442C150.633 39.3727 150.529 39.2167 150.407 38.974C150.303 38.714 150.251 38.532 150.251 38.428C150.251 38.324 150.269 38.272 150.303 38.272C150.355 38.272 150.485 38.298 150.693 38.35C151.213 38.4887 151.872 38.558 152.669 38.558C153.467 38.558 154.134 38.3847 154.671 38.038C155.226 37.6913 155.503 37.2493 155.503 36.712C155.503 36.1747 155.278 35.646 154.827 35.126C154.394 34.606 153.909 34.138 153.371 33.722C152.851 33.306 152.366 32.7947 151.915 32.188C151.482 31.564 151.265 30.94 151.265 30.316C151.265 29.7613 151.447 29.2673 151.811 28.834C152.193 28.3833 152.626 28.0107 153.111 27.716C154.29 27.0227 156.006 26.5287 158.259 26.234L158.831 26.728Z" fill="#EFEFEF"/>
</svg>
